<mxfile host="app.diagrams.net" modified="2023-06-06T23:51:26.735Z" agent="Mozilla/5.0 (Windows NT 10.0; Win64; x64) AppleWebKit/537.36 (KHTML, like Gecko) Chrome/113.0.0.0 Safari/537.36 Edg/113.0.1774.57" version="21.3.7" etag="vTOhjxju6xjTjMx7pdF4" type="github">
  <diagram name="PÃ¡gina-1" id="W9MvVDwxS0yCwP0njd1O">
    <mxGraphModel>
      <root>
        <mxCell id="0" />
        <mxCell id="1" parent="0" />
      </root>
    </mxGraphModel>
  </diagram>
</mxfile>
